<svg id="Layer_1" data-name="Layer 1" xmlns="http://www.w3.org/2000/svg" xmlns:xlink="http://www.w3.org/1999/xlink" viewBox="0 0 198.85 50.16"><defs><style>.cls-1{fill:#1eeb00;}.cls-2{fill:#fbb040;}.cls-3{fill:#004b40;}.cls-4{fill:url(#Degradado_sin_nombre);}.cls-5{fill:#afff6a;}</style><linearGradient id="Degradado_sin_nombre" x1="25.67" y1="30.05" x2="25.67" y2="3.37" gradientTransform="matrix(1, 0, 0, -1, 0, 49.89)" gradientUnits="userSpaceOnUse"><stop offset="0.28" stop-color="#1eeb00"/><stop offset="0.51" stop-color="#1ee700"/><stop offset="0.73" stop-color="#1edb00"/><stop offset="0.95" stop-color="#1ec800"/><stop offset="1" stop-color="#1ec200"/></linearGradient></defs><path class="cls-1" d="M188.73,40.66H177.88l-8.7-14.46H169V40.66h-8.8V14.05H169v9.1h.16l8.49-9.1H188.3L178,24.39Z"/><path class="cls-1" d="M145.81,40.66V26.13c0-2.94-.8-5.61-4-5.61s-4.7,2.67-4.7,5.72V40.66h-8.82V14.05h8.49l.11,2.45a10.8,10.8,0,0,1,8-3.2c7.16,0,9.72,5.56,9.72,10.9V40.66Z"/><path class="cls-1" d="M114.39,39.53V15.18L122.76,12V42.75Z"/><path class="cls-1" d="M95.41,41.51c-8,0-14.74-5.56-14.74-14.26s6.73-14,14.74-14,14.8,5.34,14.8,14.05S103.48,41.51,95.41,41.51Zm0-21c-4.11,0-6.25,3.37-6.25,6.78s2.19,6.89,6.3,6.89,6.3-3.47,6.3-6.89-2.23-6.83-6.35-6.83Z"/><path class="cls-1" d="M73.77,31.88a6.89,6.89,0,1,1-.72-9.72,6.12,6.12,0,0,1,.72.72l4.81-5.5a14.16,14.16,0,1,0,0,20l0,0Z"/><circle class="cls-2" cx="25.65" cy="5.46" r="4.65"/><path class="cls-3" d="M25.65,10.93a5.46,5.46,0,1,1,5.46-5.46A5.45,5.45,0,0,1,25.65,10.93Zm0-9.31a3.84,3.84,0,1,0,3.84,3.84A3.84,3.84,0,0,0,25.65,1.62Z"/><path class="cls-4" d="M13.42,47.32,10.84,49l-.45-.38c-.22-.18-5.31-4.59-5.31-19.1A32.2,32.2,0,0,1,6.6,19.68c-2-2.08-2.48-4-3.12-6.29-.17-.62-.34-1.27-.56-2A39.49,39.49,0,0,0,1.48,7.45l-.37-.82L2,6.35a15,15,0,0,1,4.61-.76,13.49,13.49,0,0,1,9.16,3.62,29.62,29.62,0,0,1,9.91-1.65,29.62,29.62,0,0,1,9.91,1.65,13.49,13.49,0,0,1,9.16-3.62,15,15,0,0,1,4.61.76l.86.28-.37.82a39.2,39.2,0,0,0-1.45,3.92c-.22.7-.39,1.35-.56,2-.63,2.34-1.14,4.21-3.12,6.29a32.21,32.21,0,0,1,1.53,9.84c0,14.51-5.09,18.92-5.31,19.1l-.45.38-2.57-1.63-2.28,1.73-.5-.57A12.57,12.57,0,0,1,33,45.13a31.65,31.65,0,0,1-14.74,0,12.42,12.42,0,0,1-2.08,3.36l-.5.57Z"/><path class="cls-5" d="M25.65,28.68c1.77,0,5.24-2,6.61-5.06s-1.59-4-2.77-4.21a29.05,29.05,0,0,0-3.84-.28,29.05,29.05,0,0,0-3.84.28c-1.18.22-4.13,1.17-2.77,4.21S23.87,28.68,25.65,28.68Z"/><path class="cls-3" d="M29.63,18.62a29.78,29.78,0,0,0-4-.29,29.78,29.78,0,0,0-4,.29,4.87,4.87,0,0,0-3.44,2.14,3.53,3.53,0,0,0,.1,3.24c1.54,3.43,5.32,5.54,7.35,5.54S31.46,27.39,33,24a3.55,3.55,0,0,0,.08-3.19A4.9,4.9,0,0,0,29.63,18.62Zm1.88,4.67c-1.27,2.84-4.53,4.58-5.87,4.58s-4.6-1.74-5.87-4.58a2,2,0,0,1-.13-1.78,3.34,3.34,0,0,1,2.3-1.3,28.49,28.49,0,0,1,3.69-.27,28.8,28.8,0,0,1,3.71.27,3.34,3.34,0,0,1,2.3,1.3,2,2,0,0,1-.12,1.78ZM49.58,5.58a15.76,15.76,0,0,0-4.86-.8,14.35,14.35,0,0,0-9.35,3.51,31.38,31.38,0,0,0-19.45,0A14.35,14.35,0,0,0,6.57,4.78a15.76,15.76,0,0,0-4.86.8L0,6.14.74,7.79a37.21,37.21,0,0,1,1.41,3.82c.21.69.39,1.33.55,2a13.84,13.84,0,0,0,3,6.28,33.14,33.14,0,0,0-1.42,9.64c0,6.16.89,11.29,2.65,15.25a12.67,12.67,0,0,0,3,4.47l.91.76,1-.63,1.6-1,1.23.93,1.2.91,1-1.13a14,14,0,0,0,2-3,32.29,32.29,0,0,0,13.77,0,14,14,0,0,0,2,3l1,1.13,1.2-.91,1.23-.93,1.6,1,1,.63.91-.76a12.67,12.67,0,0,0,3-4.47c1.76-4,2.65-9.1,2.65-15.25a33.14,33.14,0,0,0-1.42-9.64,13.84,13.84,0,0,0,3-6.28c.17-.62.34-1.25.55-2a37.21,37.21,0,0,1,1.41-3.82l.74-1.64ZM46.82,10.9c-.22.73-.4,1.39-.58,2a12,12,0,0,1-2.17,5,26.8,26.8,0,0,0-2.85-5.53A8.44,8.44,0,0,1,44.87,9.5L44.18,8c-3.79,1.79-4.64,4-4.67,4.13l-.15.42.27.35a29.06,29.06,0,0,1,5,16.56c0,11.28-3.2,16.09-4.34,17.44l-2.46-1.56-2,1.5a8.17,8.17,0,0,1-1.3-2.13c.68-.2,1.36-.42,2-.66L36,42.54a30,30,0,0,1-20.69,0l-.56,1.52c.67.25,1.35.46,2,.66a8.17,8.17,0,0,1-1.3,2.13l-2-1.5L11,46.92c-1.1-1.33-4.3-6.08-4.3-17.44a29.06,29.06,0,0,1,5-16.56l.27-.35-.15-.42c0-.09-.88-2.34-4.67-4.13L6.42,9.48a8.44,8.44,0,0,1,3.65,2.87,26.8,26.8,0,0,0-2.85,5.53,12,12,0,0,1-2.17-5c-.17-.64-.35-1.29-.58-2-.42-1.35-.86-2.51-1.16-3.25a11.77,11.77,0,0,1,11.6,3l.37.42.52-.19a28,28,0,0,1,9.84-1.73,28,28,0,0,1,9.84,1.73l.52.19.37-.41a11.77,11.77,0,0,1,11.6-3C47.67,8.38,47.23,9.55,46.82,10.9Zm-22,11.25v.72a1.24,1.24,0,0,1-2.48,0h0v-.72a1.24,1.24,0,0,1,2.48,0Zm-7.1-4a1.78,1.78,0,1,1-1.78-1.78,1.78,1.78,0,0,1,1.78,1.78h0Zm11.3,4v.72a1.24,1.24,0,1,1-2.48,0h0v-.72a1.24,1.24,0,0,1,2.48,0Zm8.18-4a1.78,1.78,0,1,1-1.78-1.78h0a1.78,1.78,0,0,1,1.75,1.81h0Z"/></svg>